<?xml version="1.0" encoding="iso-8859-1"?>
<!-- Uploaded to: SVG Repo, www.svgrepo.com, Generator: SVG Repo Mixer Tools -->
<svg height="800px" width="800px" version="1.1" id="Layer_1" xmlns="http://www.w3.org/2000/svg" xmlns:xlink="http://www.w3.org/1999/xlink" 
	 viewBox="0 0 512.004 512.004" xml:space="preserve">
<path style="fill:#FF877F;" d="M165.472,165.498l115.234-115.2c24.175-24.183,56.329-37.495,90.522-37.495
	s66.347,13.312,90.53,37.495c24.183,24.175,37.504,56.32,37.504,90.505s-13.321,66.33-37.504,90.513l-115.226,115.2L165.472,165.498
	z"/>
<path style="fill:#FEDEA1;" d="M140.777,499.202c-34.193,0-66.347-13.312-90.53-37.487c-24.183-24.183-37.504-56.329-37.504-90.513
	c0-34.193,13.321-66.33,37.504-90.513l115.226-115.2l181.06,181.018l-115.226,115.2C207.115,485.89,174.97,499.202,140.777,499.202z
	"/>
<path style="fill:#573A32;" d="M371.228,0.002c-37.615,0-72.986,14.643-99.584,41.242l-230.46,230.4
	c-54.912,54.895-54.912,144.222,0,199.117c26.598,26.598,61.969,41.242,99.593,41.242c37.615,0,72.986-14.643,99.584-41.242
	l230.46-230.4c54.912-54.895,54.912-144.222,0-199.117C444.222,14.645,408.851,0.002,371.228,0.002z M222.253,452.661
	c-22.502,22.494-51.994,33.741-81.476,33.741c-29.491,0-58.982-11.247-81.485-33.741c-44.996-44.988-44.996-117.931,0-162.918
	l106.18-106.146l162.961,162.918L222.253,452.661z M452.713,222.261l-106.18,106.146L183.571,165.489l106.18-106.146
	c22.502-22.494,51.994-33.741,81.476-33.741s58.982,11.247,81.485,33.741C497.709,104.331,497.709,177.274,452.713,222.261z"/>
</svg>